{"title":"The Big Heat-720p MP4 AAC x264 BRRip 1953-CC","uid":8060756,"size":2830436028,"categoryP":"video","categoryS":"hd___movies","magnet":"?xt=urn:btih:df54474df5756e247a44edbba5e571bf98a8298d&amp;dn=The+Big+Heat-720p+MP4+AAC+x264+BRRip+1953-CC&amp;tr=udp%3A%2F%2Ftracker.openbittorrent.com%3A80&amp;tr=udp%3A%2F%2Fopen.demonii.com%3A1337&amp;tr=udp%3A%2F%2Ftracker.coppersurfer.tk%3A6969&amp;tr=udp%3A%2F%2Fexodus.desync.com%3A6969","seeders":1,"leechers":1,"uploader":"Caveman44","files":-1,"time":1359060466,"description":" &lt;a href=&quot;http://www.imdb.com/title/tt0045555/&quot; rel=&quot;nofollow&quot; target=&quot;_NEW&quot;&gt;http://www.imdb.com/title/tt0045555/&lt;/a&gt;\n\nSource: The.Big.Heat.1953.720p.BluRay.X264-AMIABLE Thanks!\n\nSubs: Brazilian, Croatian, Czech, Danish, English, French, Portuguese and Spanish\n\nSample and Screens included.\n\nGeneral\nComplete name                            : The Big Heat-720p MP4 AAC x264 BRRip 1953-CC.mp4\nFormat                                   : MPEG-4\nFormat profile                           : Base Media\nCodec ID                                 : isom\nFile size                                : 2.61 GiB\nDuration                                 : 1h 29mn\nOverall bit rate mode                    : Variable\nOverall bit rate                         : 4 172 Kbps\nEncoded date                             : UTC 2013-01-14 19:47:43\n\nVideo\nID                                       : 1\nFormat                                   : AVC\nFormat/Info                              : Advanced Video Codec\nFormat profile                           : &lt;a class=&quot;__cf_email__&quot; href=&quot;/cdn-cgi/l/email-protection&quot; data-cfemail=&quot;96defff1fed6daa2b8a7&quot;&gt;[email&amp;#160;protected]&lt;/a&gt;&lt;script cf-hash='f9e31' type=&quot;text/javascript&quot;&gt;\n/* &lt;![CDATA[ */!function(){try{var t=&quot;currentScript&quot;in document?document.currentScript:function(){for(var t=document.getElementsByTagName(&quot;script&quot;),e=t.length;e--;)if(t[e].getAttribute(&quot;cf-hash&quot;))return t[e]}();if(t&amp;&amp;t.previousSibling){var e,r,n,i,c=t.previousSibling,a=c.getAttribute(&quot;data-cfemail&quot;);if(a){for(e=&quot;&quot;,r=parseInt(a.substr(0,2),16),n=2;a.length-n;n+=2)i=parseInt(a.substr(n,2),16)^r,e+=String.fromCharCode(i);e=document.createTextNode(e),c.parentNode.replaceChild(e,c)}}}catch(u){}}();/* ]]&gt; */&lt;/script&gt;\nFormat settings, CABAC                   : Yes\nFormat settings, ReFrames                : 5 frames\nCodec ID                                 : avc1\nCodec ID/Info                            : Advanced Video Coding\nDuration                                 : 1h 29mn\nBit rate                                 : 4 016 Kbps\nMaximum bit rate                         : 18.0 Mbps\nWidth                                    : 960 pixels\nHeight                                   : 720 pixels\nDisplay aspect ratio                     : 4:3\nFrame rate mode                          : Variable\nFrame rate                               : 23.976 fps\nMinimum frame rate                       : 23.256 fps\nMaximum frame rate                       : 25.000 fps\nColor space                              : YUV\nChroma subsampling                       : 4:2:0\nBit depth                                : 8 bits\nScan type                                : Progressive\nBits/(Pixel*Frame)                       : 0.242\nStream size                              : 2.51 GiB (96%)\nWriting library                          : x264 core 112\n\nAudio\nID                                       : 2\nFormat                                   : AAC\nFormat/Info                              : Advanced Audio Codec\nFormat profile                           : LC\nCodec ID                                 : 40\nDuration                                 : 1h 29mn\nBit rate mode                            : Variable\nBit rate                                 : 159 Kbps\nMaximum bit rate                         : 212 Kbps\nChannel(s)                               : 1 channel\nChannel positions                        : Front: C\nSampling rate                            : 48.0 KHz\nCompression mode                         : Lossy\nDelay relative to video                  : 83ms\nStream size                              : 102 MiB (4%)\nLanguage                                 : English\n\nEnjoy...\n\nRequested by mrmuvis\n\nComing soon: Apocalypse Hitler, Frequency, Eternal Sunshine of the Spotless Mind and more..","torrent":{"xt":"urn:btih:df54474df5756e247a44edbba5e571bf98a8298d","amp;dn":"The+Big+Heat-720p+MP4+AAC+x264+BRRip+1953-CC","amp;tr":["udp%3A%2F%2Ftracker.openbittorrent.com%3A80","udp%3A%2F%2Fopen.demonii.com%3A1337","udp%3A%2F%2Ftracker.coppersurfer.tk%3A6969","udp%3A%2F%2Fexodus.desync.com%3A6969"],"infoHash":"df54474df5756e247a44edbba5e571bf98a8298d","infoHashBuffer":{"type":"Buffer","data":[223,84,71,77,245,117,110,36,122,68,237,187,165,229,113,191,152,168,41,141]},"announce":[],"urlList":[]}}